<svg id="Ebene_1" data-name="Ebene 1" xmlns="http://www.w3.org/2000/svg" viewBox="0 0 50 50"><defs><style>.cls-1{fill:#362e44;}</style></defs><polygon class="cls-1" points="25 23.07 25 19.21 28.86 19.21 28.86 15.34 32.73 15.34 32.73 11.48 36.59 11.48 40.45 11.48 44.31 11.48 48.17 11.48 48.17 7.62 44.31 7.62 44.31 3.76 40.45 3.76 36.59 3.76 36.59 -0.11 32.73 -0.11 28.86 -0.11 25 -0.11 21.14 -0.11 17.27 -0.11 17.27 3.76 13.41 3.76 9.55 3.76 9.55 7.62 5.69 7.62 5.69 11.48 5.69 15.34 1.82 15.34 1.82 19.21 1.82 23.07 1.82 26.93 1.82 30.79 1.82 34.66 5.69 34.66 5.69 38.52 5.69 42.38 9.55 42.38 9.55 46.24 13.41 46.24 17.27 46.24 17.27 50.11 21.14 50.11 25 50.11 28.86 50.11 32.73 50.11 36.59 50.11 36.59 46.24 40.45 46.24 44.31 46.24 44.31 42.38 48.17 42.38 48.17 38.52 44.31 38.52 40.45 38.52 36.59 38.52 32.73 38.52 32.73 34.66 28.86 34.66 28.86 30.79 25 30.79 25 26.93 25 23.07"/></svg>