<svg id="Ebene_1" data-name="Ebene 1" xmlns="http://www.w3.org/2000/svg" viewBox="0 0 50 50"><defs><style>.cls-1{fill:#ffe029;}</style></defs><rect class="cls-1" x="40" y="39.89" width="3.33" height="3.33"/><rect class="cls-1" x="43.33" y="43.23" width="3.33" height="3.33"/><polygon class="cls-1" points="26.67 3.23 26.67 -0.11 23.33 -0.11 23.33 3.23 23.33 6.56 26.67 6.56 26.67 3.23"/><rect class="cls-1" x="6.67" y="6.56" width="3.33" height="3.33"/><rect class="cls-1" x="3.33" y="3.23" width="3.33" height="3.33"/><polygon class="cls-1" points="6.67 26.56 6.67 23.23 3.33 23.23 0 23.23 0 26.56 3.33 26.56 6.67 26.56"/><rect class="cls-1" x="6.67" y="39.89" width="3.33" height="3.33"/><rect class="cls-1" x="3.33" y="43.23" width="3.33" height="3.33"/><polygon class="cls-1" points="23.33 46.56 23.33 49.89 26.67 49.89 26.67 46.56 26.67 43.23 23.33 43.23 23.33 46.56"/><polygon class="cls-1" points="40 26.56 40 23.23 40 19.89 36.67 19.89 36.67 19.89 36.67 16.56 36.67 13.23 33.33 13.23 30 13.23 30 13.23 30 9.89 26.67 9.89 23.33 9.89 20 9.89 20 13.23 20 13.23 16.67 13.23 13.33 13.23 13.33 16.56 13.33 19.89 13.33 19.89 10 19.89 10 23.23 10 26.56 10 29.89 13.33 29.89 13.33 29.89 13.33 33.23 13.33 36.56 16.67 36.56 20 36.56 20 36.56 20 39.89 23.33 39.89 26.67 39.89 30 39.89 30 36.56 30 36.56 33.33 36.56 36.67 36.56 36.67 33.23 36.67 29.89 36.67 29.89 40 29.89 40 26.56"/><polygon class="cls-1" points="46.67 23.23 43.33 23.23 43.33 26.56 46.67 26.56 50 26.56 50 23.23 46.67 23.23"/><rect class="cls-1" x="40" y="6.56" width="3.33" height="3.33"/><rect class="cls-1" x="43.33" y="3.23" width="3.33" height="3.33"/></svg>